<svg id="Capa_1" enable-background="new 0 0 512 512" height="512" viewBox="0 0 512 512" width="512" xmlns="http://www.w3.org/2000/svg"><g><path d="m376.432 126.781 10.175-10.175c10.726-10.725.462-28.838-14.244-25.159l-101.363 25.342v-10.789c0-24.813 20.187-45 45-45 8.284 0 15-6.716 15-15s-6.716-15-15-15c-41.355 0-75 33.645-75 75v10.789l-101.362-25.341c-14.717-3.678-24.962 14.442-14.244 25.159l10.175 10.175c-77.621 20.098-135.569 90.506-135.569 174.218 0 99.252 81.196 180 181 180 26.102 0 51.296-5.541 75-16.479 23.704 10.938 48.898 16.479 75 16.479 99.804 0 181-80.748 181-180 0-83.758-57.992-154.131-135.568-174.219zm-124.07 23.771c2.387.588 4.865.594 7.275 0l67.463-16.866-21.707 21.707c-4.565 4.565-5.697 11.54-2.81 17.314l13.805 27.61-55.646-18.549c-3.076-1.026-6.408-1.026-9.486 0l-55.646 18.549 13.805-27.61c2.888-5.774 1.756-12.749-2.81-17.314l-21.707-21.707zm78.638 300.448c-23.828 0-46.762-5.555-68.166-16.509-4.291-2.196-9.377-2.196-13.668 0-21.404 10.954-44.338 16.509-68.166 16.509-83.262 0-151-67.29-151-150 0-74.841 57.05-138.867 131.099-148.688l16.65 16.65-25.165 50.33c-5.957 11.91 5.489 25.157 18.159 20.938l85.257-28.418 85.257 28.419c12.699 4.23 24.099-9.062 18.159-20.938l-25.165-50.33 16.65-16.65c74.049 9.82 131.099 73.846 131.099 148.687 0 82.71-67.738 150-151 150z"/></g></svg>